<?xml version="1.0" encoding="utf-8"?>
<!-- Generated by IcoMoon.io -->
<!DOCTYPE svg PUBLIC "-//W3C//DTD SVG 1.1//EN" "http://www.w3.org/Graphics/SVG/1.1/DTD/svg11.dtd">
<svg version="1.1" xmlns="http://www.w3.org/2000/svg" xmlns:xlink="http://www.w3.org/1999/xlink" width="672" height="1024" viewBox="0 0 672 1024">
<g id="icomoon-ignore">
</g>
<path d="M672.672 16c0-8.832-7.168-16-16-16h-641.344c-8.832 0-16 7.168-16 16s7.136 16 16 16h641.376c8.832 0 15.968-7.168 15.968-16zM640 195.584v-115.584c0-8.832-7.168-16-16-16h-573.376c-8.832 0-16 7.168-16 16v115.584c0 159.232 121.856 267.2 192.448 316.352-80.928 55.744-195.072 161.824-195.072 316.48v115.584c0 8.832 7.168 16 16 16h576c8.832 0 16-7.168 16-16v-114.656c0-158.784-123.616-267.68-195.040-317.312 80.928-55.744 195.040-161.792 195.040-316.448zM336 774.080l153.92 153.92h-307.84l153.92-153.92zM407.424 498.496c-4.64 2.912-7.424 8.032-7.424 13.504s2.784 10.592 7.424 13.504c60.32 38.24 200.576 144.416 200.576 303.84v98.656h-73.216c-0.288-0.352-0.416-0.8-0.736-1.12l-182.048-182.048v-24.832c0-8.832-7.168-16-16-16s-16 7.168-16 16v24.832l-182.048 182.048c-0.32 0.32-0.448 0.768-0.736 1.12h-73.216v-99.584c0-152.864 125.664-255.392 200.576-302.88 4.64-2.944 7.424-8.064 7.424-13.536s-2.784-10.592-7.424-13.504c-59.52-37.76-200.576-142.816-200.576-302.912v-99.584h544v99.584c0 152.896-125.664 255.392-200.576 302.912zM497.312 287.104h-314.048c-5.728 0-11.040 3.072-13.888 8.032-2.848 4.992-2.816 11.104 0.064 16.064 37.984 64.672 93.44 104.256 152.16 146.208l5.088 3.616c2.784 1.984 6.016 2.976 9.312 2.976s6.528-0.992 9.312-2.976c8.384-5.984 16.832-11.872 25.28-17.76 52.448-36.608 106.688-74.432 140.512-132.064 2.912-4.928 2.944-11.072 0.096-16.032-2.88-4.992-8.16-8.064-13.888-8.064zM352.256 416.992c-5.408 3.776-10.816 7.552-16.224 11.36-48.16-34.4-90.72-65.344-123.072-109.28h254.176c-30.112 38.784-71.488 67.648-114.88 97.92zM15.328 1024h641.376c8.832 0 16-7.168 16-16s-7.168-16-16-16h-641.376c-8.832 0-16 7.168-16 16s7.136 16 16 16zM336 608c-8.832 0-16 7.168-16 16v32c0 8.832 7.168 16 16 16s16-7.168 16-16v-32c0-8.832-7.168-16-16-16zM336 512c-8.832 0-16 7.168-16 16v32c0 8.832 7.168 16 16 16s16-7.168 16-16v-32c0-8.832-7.168-16-16-16z"></path>
</svg>
