<?xml version="1.0" encoding="utf-8"?>
<!-- Generated by IcoMoon.io -->
<!DOCTYPE svg PUBLIC "-//W3C//DTD SVG 1.1//EN" "http://www.w3.org/Graphics/SVG/1.1/DTD/svg11.dtd">
<svg version="1.1" xmlns="http://www.w3.org/2000/svg" xmlns:xlink="http://www.w3.org/1999/xlink" width="1024" height="1024" viewBox="0 0 1024 1024">
<g id="icomoon-ignore">
</g>
<path d="M990.944 379.392c-5.728-124.608-55.616-248.928-152.576-344.096-97.12-95.296-224.032-144.288-351.2-149.76l-7.008-70.816c147.104 8.8 290.304 65.952 403.040 176.544 112.96 110.88 171.872 251.168 180.672 395.84l-72.928-7.712zM895.2 394.688l-70.208-9.696c1.152-86.464-31.168-174.016-98.4-240-65.92-64.672-152.928-96.448-239.328-96.64l-12.672-69.472c107.008 2.592 213.92 43.264 295.584 123.36 83.072 81.664 123.84 185.504 125.024 292.448zM725.824 390.528l-62.304-17.248c7.328-44.096-16.192-82.624-50.848-116.672-31.456-30.88-73.728-44.736-114.848-41.664l-24.096-69.12c65.728-4.256 132.864 18.272 183.104 67.584 49.536 48.64 72.544 113.472 68.992 177.12zM593.792 352.288c0 44.832-37.024 81.184-82.72 81.184-15.776 0-30.368-4.576-42.912-12.096l-35.552 34.944 257.28 249.792c-6.304 7.424-12.896 14.88-20.512 22.336-144.256 141.568-378.144 141.568-522.432 0-144.288-141.632-144.288-371.168 0-512.736 6.592-6.528 13.184-12 19.776-17.536l242.336 235.296 34.784-34.144c-9.696-13.28-15.52-29.44-15.52-47.040 0-44.832 37.056-81.184 82.752-81.184s82.72 36.32 82.72 81.184zM278.080 836.736c-3.040 0 84.064 187.264 84.064 187.264h-362.144l124.928-289.312c0 0 37.92 55.264 153.152 102.048z"></path>
</svg>
