<?xml version="1.0" encoding="utf-8"?>
<!-- Generator: Adobe Illustrator 16.0.0, SVG Export Plug-In . SVG Version: 6.00 Build 0)  -->
<!DOCTYPE svg PUBLIC "-//W3C//DTD SVG 1.1//EN" "http://www.w3.org/Graphics/SVG/1.1/DTD/svg11.dtd">
<svg version="1.1" id="Слой_1" xmlns="http://www.w3.org/2000/svg" xmlns:xlink="http://www.w3.org/1999/xlink" x="0px" y="0px"
	 width="114.229px" height="73.188px" viewBox="0 0 114.229 73.188" enable-background="new 0 0 114.229 73.188"
	 xml:space="preserve">
<g>
	<g>
		<path fill="#ED1C24" d="M19.165,0.758h-5.99c-5.885,0-10.876,4.481-10.876,13.178c0,5.218,2.418,9.066,6.724,10.963L0.984,39.448
			c-0.262,0.474,0,0.842,0.418,0.842h3.732c0.314,0,0.524-0.106,0.629-0.369l7.305-14.283h2.627v14.283
			c0,0.157,0.158,0.369,0.368,0.369h3.259c0.314,0,0.42-0.157,0.42-0.418V1.287C19.743,0.916,19.532,0.758,19.165,0.758z
			 M15.696,22.265h-2.207c-3.468,0-6.832-2.53-6.832-8.856c0-6.589,3.154-9.277,6.358-9.277h2.68V22.265z"/>
		<path fill="#221E1F" d="M38.915,13.863h-3.257c-0.262,0-0.42,0.211-0.42,0.367v10.069h-6.043V14.23
			c0-0.261-0.104-0.367-0.368-0.367h-3.259c-0.26,0-0.419,0.158-0.419,0.367v25.619c0,0.262,0.105,0.423,0.366,0.423h3.312
			c0.211,0,0.368-0.161,0.368-0.423V27.622h6.043v12.227c0,0.262,0.158,0.423,0.42,0.423h3.257c0.264,0,0.368-0.211,0.368-0.423
			V14.23C39.282,14.021,39.126,13.863,38.915,13.863z"/>
		<path fill="#221E1F" d="M113.298,38.583l-0.418-1.792c-0.053-0.158-0.104-0.211-0.265-0.211c-0.262,0-1.681,0.579-3.729,0.579
			c-3.994,0-5.938-3.845-5.938-9.961c0-5.375,1.626-10.699,4.361-10.699c0.735,0,1.628,0.211,3.044,1.529
			c0.161,0.159,0.267,0.212,0.423,0.212c0.157,0,0.317-0.107,0.474-0.372l1.42-2.317c0.104-0.16,0.156-0.32,0.156-0.477
			c0-0.211-0.212-0.367-0.524-0.525c-2.154-1.108-3.628-1.319-4.89-1.319c-4.937,0-8.775,5.904-8.775,15.127
			c0,7.96,3.679,12.545,8.936,12.545c2.205,0,4.569-1.053,5.515-1.74C113.298,39.005,113.353,38.794,113.298,38.583z"/>
		<path fill="#221E1F" d="M90.46,25.774l6.308-11.544c0.106-0.156,0.052-0.367-0.16-0.367h-3.099c-0.891,0-1.208,0.315-1.523,1
			l-4.73,9.857c-0.261,0.58-0.522,0.948-0.784,1.107V14.23c0-0.209-0.105-0.367-0.317-0.367h-3.415
			c-0.156,0-0.317,0.158-0.317,0.367V39.9c0,0.16,0.106,0.372,0.317,0.372h3.415c0.212,0,0.317-0.161,0.317-0.372V26.671
			c0.156,0.105,0.262,0.264,0.367,0.476l5.986,12.333c0.316,0.631,0.79,0.792,1.475,0.792h3.361c0.211,0,0.262-0.211,0.16-0.372
			L90.46,25.774z"/>
		<path fill="#221E1F" d="M60.356,36.949h-0.634c-0.789,0-0.997-0.315-0.997-0.948V14.23c0-0.261-0.105-0.367-0.316-0.367H47.9
			c-0.263,0-0.421,0.158-0.421,0.367v1.899c0,6.377-0.367,14.601-3.73,20.82h-1.157c-0.314,0-0.42,0.161-0.42,0.423
			c0,0,0,6.326,0,7.693c0,0.268,0.211,0.372,0.368,0.372h2.523c0.577,0,0.789-0.423,0.789-0.791v-4.374h11.245v4.793
			c0,0.21,0.154,0.372,0.366,0.372h2.682c0.312,0,0.628-0.266,0.628-0.791v-7.273C60.772,37.11,60.617,36.949,60.356,36.949z
			 M54.679,36.949H47.06c2.68-4.586,3.73-9.751,4.098-16.074c0.105-1.372,0.158-2.795,0.158-3.69h3.363V36.949z"/>
		<path fill="#221E1F" d="M71.072,13.23c-5.674,0-8.196,7.168-8.196,14.968c0,7.961,3.572,12.704,8.83,12.704
			c2.57,0,4.83-1.001,5.985-1.74c0.212-0.105,0.263-0.262,0.212-0.473l-0.422-1.792c-0.052-0.211-0.157-0.317-0.419-0.317
			c-0.209,0-1.733,0.579-3.889,0.579c-4.044,0-5.936-3.53-5.936-8.168c0-0.634,0-1.249,0-1.249s2.048,0.247,3.256,0.247h7.671
			v-2.215C78.165,17.606,75.276,13.23,71.072,13.23z M70.494,24.668c-1.208,0-3.101,0.211-3.101,0.211s0-0.792,0.106-1.635
			c0.472-4.479,1.574-6.746,3.416-6.746c1.681,0,2.73,2.319,2.993,6.378c0.055,0.842,0.055,1.792,0.055,1.792H70.494z"/>
	</g>
</g>
<g>
	<g>
		<path fill="#221E1F" d="M35.146,60.623h-2.76v-1.418h7.155v1.418h-2.759v7.785h-1.636V60.623z"/>
		<path fill="#221E1F" d="M48.35,67.166c-0.729,0.847-1.774,1.458-3.586,1.458c-1.104,0-2.267-0.156-3.292-1.22
			c-0.809-0.85-1.321-2.13-1.321-3.528c0-1.262,0.434-2.703,1.321-3.665c0.729-0.791,1.695-1.224,2.975-1.224
			c1.006,0,1.953,0.256,2.721,0.984c1.143,1.085,1.438,2.899,1.419,4.162h-6.622c0.02,0.868,0.354,1.809,0.907,2.381
			c0.57,0.573,1.241,0.69,1.812,0.69c0.553,0,1.577-0.078,2.563-1.002L48.35,67.166z M46.694,62.715
			c-0.058-0.596-0.333-1.302-0.729-1.714c-0.473-0.495-1.026-0.595-1.538-0.595c-0.571,0-1.063,0.117-1.517,0.551
			c-0.415,0.394-0.768,1.067-0.868,1.757H46.694z"/>
		<path fill="#221E1F" d="M50.596,59.205h1.636v1.063c1.123-1.12,2.267-1.28,2.976-1.28c1.419,0,2.248,0.589,2.682,1.024
			c1.043,1.045,1.241,2.542,1.241,3.61c0,2.009-0.63,3.229-1.38,3.979c-0.789,0.79-1.655,1.024-2.739,1.024
			c-0.532,0-1.144-0.057-1.676-0.317c-0.414-0.195-0.826-0.511-1.104-0.807v4.69h-1.636V59.205z M52.231,65.886
			c0.297,0.356,0.67,0.651,1.026,0.868c0.512,0.294,0.945,0.412,1.496,0.412c0.632,0,1.144-0.118,1.637-0.611
			c0.592-0.591,0.926-1.575,0.926-2.856c0-0.594-0.061-1.675-0.612-2.403c-0.294-0.396-0.826-0.852-1.732-0.852
			c-0.612,0-1.125,0.218-1.617,0.596c-0.57,0.43-1.082,1.023-1.123,1.079V65.886z"/>
		<path fill="#221E1F" d="M61.139,59.205h1.637v1.063c1.123-1.12,2.264-1.28,2.977-1.28c1.418,0,2.247,0.589,2.681,1.024
			c1.042,1.045,1.241,2.542,1.241,3.61c0,2.009-0.633,3.229-1.38,3.979c-0.79,0.79-1.658,1.024-2.742,1.024
			c-0.529,0-1.142-0.057-1.675-0.317c-0.412-0.195-0.824-0.511-1.102-0.807v4.69h-1.637V59.205z M62.775,65.886
			c0.295,0.356,0.668,0.651,1.024,0.868c0.511,0.294,0.944,0.412,1.496,0.412c0.633,0,1.146-0.118,1.635-0.611
			c0.596-0.591,0.93-1.575,0.93-2.856c0-0.594-0.061-1.675-0.612-2.403c-0.295-0.396-0.829-0.852-1.735-0.852
			c-0.607,0-1.119,0.218-1.614,0.596c-0.572,0.43-1.085,1.023-1.123,1.079V65.886z"/>
		<path fill="#221E1F" d="M71.622,60.072c1.185-0.846,2.426-1.085,3.609-1.085c1.437,0,2.266,0.396,2.738,0.889
			c0.707,0.747,0.729,1.811,0.729,2.541v3.192c0,0.456-0.04,1.085,0.195,1.363c0.139,0.178,0.434,0.256,0.751,0.194l-0.239,1.401
			c-0.629,0.157-1.241,0-1.593-0.277c-0.277-0.217-0.516-0.611-0.612-1.007c-0.295,0.317-0.75,0.713-1.184,0.929
			c-0.452,0.234-1.085,0.413-1.948,0.413c-0.733,0-1.58-0.117-2.271-0.787c-0.412-0.394-0.828-1.066-0.828-2.029
			c0-0.929,0.416-1.558,0.812-1.953c0.769-0.769,1.932-1.007,2.6-1.103c0.828-0.121,1.874-0.177,2.642-0.177v-0.099
			c0-0.551-0.022-1.264-0.455-1.654c-0.353-0.338-0.964-0.416-1.418-0.416c-0.569,0-1.043,0.117-1.476,0.256
			c-0.417,0.138-0.808,0.295-1.242,0.55L71.622,60.072z M77.063,63.934c-0.156,0-1.618,0.061-2.387,0.217
			c-0.511,0.1-1.123,0.317-1.457,0.633c-0.218,0.196-0.451,0.551-0.451,1.042c0,0.511,0.233,0.806,0.395,0.967
			c0.352,0.334,0.824,0.396,1.202,0.396c0.351,0,0.746-0.061,1.162-0.239c0.529-0.234,1.142-0.746,1.536-1.202V63.934z"/>
	</g>
</g>
</svg>
